PathFileType	4	(X/Y/Z)	1H_rest_med_left.trc
DataRate	CameraRate	NumFrames	NumMarkers	Units	OrigDataRate	OrigDataStartFrame	OrigNumFrames
250.00	250.00	19	18	mm	250.00	5870	23478
Frame#	Time	c7	r_should	l_should	clavicle	r_upa	r_elb_l	r_elb_m	r_low	r_wri_l	r_wri_m	r_met	l_upa	l_elb_l	l_elb_m	l_low	l_wri_l	l_wri_m	l_met
	X1	Y1	Z1	X2	Y2	Z2	X3	Y3	Z3	X4	Y4	Z4	X5	Y5	Z5	X6	Y6	Z6	X7	Y7	Z7	X8	Y8	Z8	X9	Y9	Z9	X10	Y10	Z10	X11	Y11	Z11	X12	Y12	Z12	X13	Y13	Z13	X14	Y14	Z14	X15	Y15	Z15	X16	Y16	Z16	X17	Y17	Z17	X18	Y18	Z18
5870	23.47600	612.19916	1419.45740	254.52328	678.38989	1362.84094	407.48331	644.98993	1367.53625	89.48834	743.60345	1282.38916	238.19997	689.99207	1158.75586	486.28726	690.12518	1071.19604	511.14066	632.40527	1032.57837	451.51001	752.55591	899.50861	493.22568	717.54431	812.13324	497.78375	777.74127	835.99335	462.18021	821.86310	760.82196	489.18045	659.42548	1186.68274	12.31531	669.99921	1114.82544	-10.84831	700.96930	1059.13428	68.50037	763.96423	1178.31433	2.61684	796.50360	1241.23816	33.60174	854.85138	1198.53198	37.13448	843.31866	1304.24878	3.07365
5871	23.48000	612.14374	1419.47229	254.51044	678.32013	1362.85876	407.47958	644.97784	1367.50940	89.46409	743.53534	1282.36768	238.21570	689.95392	1158.77917	486.28314	690.22931	1071.26001	511.15762	632.39673	1032.59839	451.48438	752.58838	899.53552	493.17767	717.62958	812.19513	497.73016	777.80664	836.04077	462.11969	821.95746	760.88403	489.11279	659.34119	1186.61011	12.33612	669.98383	1114.72412	-10.78750	700.82410	1059.04883	68.57013	764.17578	1177.97461	2.64916	796.94690	1240.77515	33.65004	855.12402	1197.87427	37.16204	843.97852	1303.92432	2.92710
5872	23.48400	612.08905	1419.48193	254.48752	678.25293	1362.88159	407.48233	644.96600	1367.48291	89.43484	743.46783	1282.34644	238.22954	689.89502	1158.78516	486.26532	690.26990	1071.27185	511.13446	632.38434	1032.60461	451.43488	752.61786	899.55798	493.12854	717.70618	812.22546	497.63889	777.87091	836.09210	462.05795	822.04224	760.94904	489.04465	659.25531	1186.53784	12.35758	669.94513	1114.60535	-10.75188	700.61334	1058.92566	68.59402	764.39355	1177.62402	2.66201	797.37695	1240.32153	33.68607	855.40729	1197.21021	37.17447	844.64624	1303.64771	2.73052
5873	23.48800	612.03491	1419.48706	254.46919	678.17065	1362.90308	407.48395	644.95154	1367.45398	89.41526	743.40588	1282.33423	238.24229	689.81628	1158.77441	486.23831	690.26672	1071.26062	511.09302	632.35938	1032.59106	451.37906	752.64807	899.59094	493.07950	717.76202	812.22778	497.52753	777.93134	836.14594	461.99603	822.13245	761.01953	488.97345	659.15717	1186.45984	12.37649	669.87909	1114.46204	-10.72639	700.34662	1058.76196	68.57197	764.59735	1177.26953	2.66532	797.80664	1239.85852	33.69970	855.69879	1196.53589	37.19041	845.24719	1302.63074	3.03911
5874	23.49200	611.98224	1419.48071	254.45831	678.09045	1362.90686	407.47949	644.93591	1367.41248	89.39471	743.34692	1282.31799	238.24861	689.72418	1158.75854	486.20938	690.22528	1071.24170	511.06180	632.31232	1032.55725	451.32828	752.67297	899.62604	493.03113	717.80084	812.21429	497.42285	777.98718	836.19629	461.93744	822.22424	761.08551	488.90732	659.04803	1186.36804	12.39801	669.79333	1114.29370	-10.69673	700.07660	1058.58411	68.54224	764.79724	1176.89856	2.67577	798.24506	1239.37573	33.73551	855.98438	1195.86035	37.18771	845.88019	1302.14697	2.97557
5875	23.49600	611.92548	1419.46387	254.43819	678.00525	1362.90479	407.47302	644.92487	1367.36145	89.37422	743.29480	1282.29639	238.25885	689.62396	1158.74963	486.18973	690.14862	1071.23633	511.04813	632.26074	1032.51489	451.29443	752.69702	899.66510	492.98309	717.83746	812.20618	497.33203	778.04156	836.24512	461.86377	822.31134	761.15631	488.83383	658.93713	1186.27002	12.42037	669.70599	1114.11951	-10.64582	699.82935	1058.42505	68.51846	764.99786	1176.50439	2.69170	798.68182	1238.88550	33.77237	856.29114	1195.19019	37.16949	846.53955	1302.02673	2.66522
5876	23.50000	611.86530	1419.45288	254.41229	677.91199	1362.90527	407.46078	644.91260	1367.30969	89.35106	743.23956	1282.27454	238.26167	689.53015	1158.76025	486.18997	690.05615	1071.26245	511.05093	632.20941	1032.49512	451.27795	752.71802	899.71399	492.93088	717.87860	812.22449	497.26700	778.08984	836.31311	461.79514	822.39319	761.23370	488.75070	658.82959	1186.17871	12.45381	669.63684	1113.97961	-10.58090	699.62122	1058.29956	68.52866	765.20752	1176.10828	2.72703	799.13440	1238.37708	33.82106	856.58618	1194.51550	37.13720	847.18494	1301.52698	2.61638
5877	23.50400	611.80487	1419.44934	254.37955	677.81317	1362.91284	407.44669	644.89795	1367.26819	89.32813	743.18561	1282.25720	238.27234	689.44604	1158.79443	486.20865	689.94513	1071.31555	511.06583	632.15515	1032.51086	451.27631	752.73547	899.77014	492.87277	717.92664	812.27850	497.22211	778.13977	836.38428	461.73373	822.47107	761.31970	488.66290	658.72430	1186.09753	12.48260	669.59381	1113.87244	-10.50904	699.45984	1058.21582	68.57069	765.42401	1175.71887	2.76217	799.58582	1237.87048	33.86031	856.88171	1193.82776	37.09747	847.84137	1300.90955	2.61285
5878	23.50800	611.74988	1419.45203	254.35400	677.72333	1362.92456	407.44101	644.88629	1367.23242	89.30152	743.13007	1282.24011	238.28105	689.36694	1158.83264	486.24710	689.83459	1071.37134	511.08807	632.11072	1032.54138	451.28256	752.74634	899.82404	492.82440	717.98297	812.35559	497.19458	778.18231	836.45221	461.68570	822.53955	761.40692	488.58612	658.63330	1186.02539	12.50269	669.57428	1113.78174	-10.44037	699.32031	1058.16162	68.63908	765.64673	1175.33496	2.78222	800.04419	1237.37122	33.88876	857.18915	1193.12769	37.05980	848.49762	1300.24976	2.62688
5879	23.51200	611.70282	1419.46021	254.32899	677.63977	1362.94031	407.43375	644.88055	1367.20520	89.27400	743.07098	1282.22412	238.28287	689.28387	1158.86609	486.27731	689.71637	1071.41736	511.10553	632.06610	1032.56909	451.28098	752.75067	899.87585	492.78055	718.03735	812.43860	497.16656	778.21558	836.51910	461.63766	822.60724	761.49200	488.51160	658.55670	1185.96606	12.52154	669.56628	1113.70129	-10.39008	699.18317	1058.09790	68.70006	765.87952	1174.95276	2.78597	800.51617	1236.86243	33.91314	857.48315	1192.42383	37.02897	849.19867	1299.60010	2.61649
5880	23.51600	611.65826	1419.47375	254.29660	677.56085	1362.95825	407.41794	644.88116	1367.18884	89.24244	743.00854	1282.20984	238.28848	689.18872	1158.89319	486.28754	689.56567	1071.44397	511.10452	632.02020	1032.58752	451.26245	752.74799	899.92419	492.73969	718.08380	812.51086	497.11331	778.24567	836.58765	461.58859	822.66949	761.58026	488.43860	658.48444	1185.91394	12.52753	669.55927	1113.62122	-10.37220	699.00610	1058.00720	68.72484	766.12817	1174.57117	2.78592	800.99359	1236.35535	33.93919	857.79590	1191.69373	37.01567	849.93170	1298.93079	2.54353
5881	23.52000	611.61414	1419.48621	254.25279	677.48260	1362.97485	407.40076	644.88763	1367.17358	89.20616	742.74133	1282.33972	238.30962	689.08008	1158.90796	486.27167	689.41040	1071.43774	511.07593	631.95953	1032.59705	451.22479	752.74689	899.97900	492.69580	718.12531	812.55066	497.02362	778.27380	836.65350	461.53931	822.73267	761.67212	488.37201	658.41864	1185.86401	12.52073	669.53491	1113.53491	-10.38961	698.77362	1057.89441	68.70269	766.38867	1174.19592	2.78508	801.48157	1235.84375	33.97330	858.11285	1190.97046	36.99113	850.74219	1298.23999	2.33044
5882	23.52400	611.57477	1419.49341	254.20686	677.40509	1362.98438	407.37964	644.89386	1367.14453	89.17578	742.24329	1282.63660	238.34291	688.96259	1158.90979	486.24689	689.27979	1071.39648	511.02960	631.88770	1032.58154	451.18488	752.74591	900.03375	492.65109	718.15198	812.55975	496.92755	778.29871	836.72131	461.48801	822.78815	761.76501	488.30270	658.34937	1185.81018	12.51197	669.49530	1113.42358	-10.41212	698.50061	1057.75085	68.65601	766.64038	1173.81030	2.78704	801.97516	1235.32324	33.98217	858.42163	1190.24829	36.94284	851.49432	1297.54333	2.25876
5883	23.52800	611.52911	1419.48523	254.17480	677.32544	1362.98120	407.36215	644.89221	1367.10498	89.15220	742.16144	1282.66028	238.35791	688.84308	1158.89880	486.21701	689.11499	1071.33337	510.98050	631.80548	1032.54187	451.16180	752.73456	900.08838	492.61649	718.16364	812.55695	496.84253	778.31641	836.79010	461.43912	822.84003	761.84857	488.24054	658.27362	1185.73877	12.50581	669.45227	1113.30249	-10.43420	698.21631	1057.56897	68.60234	766.87927	1173.40015	2.78328	802.47345	1234.78430	33.98518	858.74231	1189.51721	36.89405	852.19110	1296.83679	2.25947
5884	23.53200	611.48114	1419.46716	254.13832	677.24170	1362.97302	407.34866	644.88092	1367.05908	89.12701	742.16473	1282.61414	238.36095	688.72119	1158.89197	486.20404	688.94879	1071.28137	510.95013	631.71893	1032.50244	451.14780	752.71680	900.14026	492.57532	718.16254	812.55585	496.77353	778.32745	836.85883	461.38867	822.88470	761.92816	488.18359	658.19110	1185.66248	12.49994	669.40588	1113.17456	-10.43249	697.95905	1057.39758	68.56330	767.10797	1172.98193	2.77016	802.95435	1234.23889	33.99338	859.05688	1188.79919	36.82637	852.89813	1296.11877	2.25972
5885	23.53600	611.42780	1419.44849	254.08989	677.14417	1362.96790	407.33063	644.86780	1367.01489	89.09933	742.18201	1282.54834	238.36070	688.61182	1158.90601	486.21484	688.81055	1071.24451	510.93524	631.63812	1032.48718	451.14514	752.69751	900.20074	492.53333	718.15918	812.58069	496.72394	778.33514	836.93372	461.34595	822.91650	762.00873	488.12094	658.10779	1185.58972	12.49030	669.35992	1113.05994	-10.41223	697.74390	1057.26965	68.55410	767.33502	1172.56677	2.75085	803.43787	1233.68347	34.01653	859.38019	1188.06201	36.77188	853.61182	1295.38928	2.27142
5886	23.54000	611.37225	1419.43604	254.04781	677.04333	1362.96838	407.30789	644.85559	1366.98132	89.06145	742.19812	1282.46680	238.34966	688.51758	1158.93030	486.23761	688.72437	1071.23926	510.93661	631.56073	1032.50623	451.15402	752.67517	900.25519	492.49030	718.15802	812.63672	496.69522	778.32770	837.00311	461.30054	822.94153	762.09009	488.06113	658.03027	1185.52820	12.47296	669.32532	1112.96814	-10.38739	697.57758	1057.18677	68.57165	767.56799	1172.14636	2.72524	803.92078	1233.12512	34.03579	859.69427	1187.31348	36.72137	854.30804	1294.67542	2.27742
5887	23.54400	611.31812	1419.43433	254.00233	676.95093	1362.96838	407.27740	644.84570	1366.95374	89.02238	742.21503	1282.38281	238.34009	688.43036	1158.96301	486.25983	688.72705	1071.25098	510.93036	631.49548	1032.53967	451.15683	752.64221	900.30865	492.44562	718.16785	812.71350	496.67032	778.31262	837.07074	461.25589	822.95966	762.17212	487.99985	657.96265	1185.47083	12.44557	669.30853	1112.89734	-10.37656	697.45422	1057.13696	68.60307	767.80927	1171.74597	2.70702	804.41235	1232.56958	34.02169	860.00378	1186.56567	36.66894	855.04443	1293.94226	2.25887
5888	23.54800	611.26764	1419.44385	253.94815	676.86066	1362.98303	407.24408	644.84888	1366.93896	88.97485	742.21710	1282.31335	238.33598	688.34357	1158.99805	486.26984	688.74487	1071.26050	510.90860	631.43799	1032.57056	451.14423	752.59656	900.35883	492.40878	718.17554	812.79346	496.63211	778.29681	837.14014	461.22476	822.96619	762.25934	487.94043	657.90472	1185.41870	12.40792	669.30646	1112.82959	-10.39079	697.31329	1057.09937	68.61771	768.07758	1171.34631	2.68923	804.91473	1232.01257	33.99517	860.32770	1185.79297	36.65482	855.78540	1293.22266	2.24160
